<?xml version="1.0" encoding="utf-8"?>
<!-- Generator: Adobe Illustrator 26.1.0, SVG Export Plug-In . SVG Version: 6.00 Build 0)  -->
<svg version="1.1" xmlns="http://www.w3.org/2000/svg" xmlns:xlink="http://www.w3.org/1999/xlink" x="0px" y="0px" width="820px"
	 height="465.796px" viewBox="0 0 820 465.796" style="enable-background:new 0 0 820 465.796;" xml:space="preserve">
<style type="text/css">
	.st0{fill:#333333;}
	.st1{fill:#FFFFFF;}
	.st2{fill:url(#SVGID_1_);}
	.st3{fill:url(#SVGID_00000083807120095392361060000003922159086925934014_);}
	.st4{fill:url(#SVGID_00000181083130283523056150000005574861445632205717_);}
	.st5{fill:url(#SVGID_00000044867706458999744730000003033701897218767272_);}
	.st6{fill:url(#SVGID_00000053522398789696495700000018248409468519196569_);}
	.st7{fill:url(#SVGID_00000132777394579911953560000013039644926797540270_);}
	.st8{fill:url(#SVGID_00000101802347929965486210000012421373280597329073_);}
	.st9{fill:url(#SVGID_00000123406794915170426970000004903642879626518926_);}
	.st10{fill:url(#SVGID_00000079444918891387327810000008547100204569283986_);}
	.st11{fill:url(#SVGID_00000111150932386968521210000017316900527916276916_);}
	
		.st12{display:none;fill:#FFFFFF;stroke:url(#SVGID_00000051355668372658826740000015904064288449385399_);stroke-width:7;stroke-miterlimit:10;}
	
		.st13{display:none;fill:#FFFFFF;stroke:url(#SVGID_00000170272734515503180640000001527039757285696151_);stroke-width:7;stroke-miterlimit:10;}
	
		.st14{display:none;fill:#FFFFFF;stroke:url(#SVGID_00000168837846363411431680000016020480792818506625_);stroke-width:7;stroke-miterlimit:10;}
	
		.st15{display:none;fill:#FFFFFF;stroke:url(#SVGID_00000073692171684378674550000009788042466923759770_);stroke-width:7;stroke-miterlimit:10;}
	
		.st16{display:none;fill:#FFFFFF;stroke:url(#SVGID_00000114765306001533552760000004606604254119486101_);stroke-width:7;stroke-miterlimit:10;}
	
		.st17{display:none;fill:#FFFFFF;stroke:url(#SVGID_00000167396665105326177420000018005840145040816566_);stroke-width:7;stroke-miterlimit:10;}
	
		.st18{display:none;fill:#FFFFFF;stroke:url(#SVGID_00000040536408423022363480000002455905261129321092_);stroke-width:7;stroke-miterlimit:10;}
	
		.st19{display:none;fill:#FFFFFF;stroke:url(#SVGID_00000072959534645351220660000008882497754196428458_);stroke-width:7;stroke-miterlimit:10;}
	
		.st20{display:none;fill:#FFFFFF;stroke:url(#SVGID_00000162318791586133016890000004655365654624580277_);stroke-width:7;stroke-miterlimit:10;}
	
		.st21{display:none;fill:#FFFFFF;stroke:url(#SVGID_00000011711684210918102480000006474483974878643855_);stroke-width:7;stroke-miterlimit:10;}
	.st22{fill:none;stroke:#FFFFFF;stroke-width:1.5;stroke-linecap:round;stroke-linejoin:round;stroke-miterlimit:10;}
	.st23{fill:#363636;}
</style>
<g id="MAIN_GRAPHICS">
</g>
<g id="Layer_2_copy">
	<path class="st0" d="M313.715,134.621c-0.575,0-1.123-0.332-1.372-0.891c-0.336-0.757,0.004-1.644,0.761-1.98l53.872-23.943
		c0.758-0.335,1.644,0.005,1.98,0.761c0.336,0.757-0.004,1.644-0.761,1.98l-53.872,23.943
		C314.125,134.579,313.918,134.621,313.715,134.621z"/>
	<path class="st0" d="M238.563,137.181c-0.292,0-0.586-0.084-0.845-0.262l-66.513-45.458c-0.684-0.467-0.86-1.401-0.392-2.084
		c0.467-0.684,1.4-0.861,2.084-0.392l66.513,45.458c0.684,0.467,0.86,1.401,0.392,2.084
		C239.512,136.952,239.042,137.181,238.563,137.181z"/>
	<path class="st0" d="M468.018,200.031c-0.396,0-0.791-0.156-1.086-0.465l-59.858-62.851c-0.571-0.6-0.548-1.549,0.052-2.121
		c0.6-0.57,1.549-0.548,2.121,0.052l59.857,62.851c0.571,0.6,0.549,1.549-0.052,2.121
		C468.762,199.894,468.39,200.031,468.018,200.031z"/>
	<path class="st0" d="M508.919,195.043c-0.349,0-0.699-0.121-0.983-0.368c-0.625-0.543-0.691-1.491-0.147-2.116l61.184-70.399
		c0.541-0.625,1.489-0.693,2.116-0.148c0.625,0.543,0.691,1.491,0.147,2.116l-61.184,70.399
		C509.756,194.868,509.339,195.043,508.919,195.043z"/>
	<path class="st0" d="M683.503,179.081c-0.331,0-0.664-0.109-0.942-0.333l-73.496-59.425c-0.644-0.521-0.744-1.465-0.223-2.11
		c0.52-0.644,1.463-0.745,2.109-0.223l73.496,59.425c0.644,0.521,0.744,1.465,0.223,2.109
		C684.374,178.891,683.94,179.081,683.503,179.081z"/>
	<path class="st0" d="M630.957,352.103c-0.235,0-0.474-0.056-0.696-0.173c-0.733-0.385-1.016-1.292-0.631-2.025l50.551-96.204
		c0.386-0.734,1.291-1.016,2.025-0.63c0.733,0.385,1.016,1.292,0.631,2.025L632.286,351.3
		C632.018,351.811,631.496,352.103,630.957,352.103z"/>
	<path class="st0" d="M568.108,368.064c-0.449,0-0.893-0.201-1.188-0.583l-70.831-91.781c-0.506-0.656-0.385-1.598,0.271-2.104
		c0.655-0.504,1.597-0.384,2.104,0.271l70.831,91.781c0.506,0.656,0.385,1.598-0.271,2.104
		C568.751,367.962,568.429,368.064,568.108,368.064z"/>
	<path class="st0" d="M313.387,249.913c-0.573,0-1.12-0.33-1.369-0.886l-30.926-68.836c-0.339-0.756-0.002-1.644,0.753-1.983
		c0.757-0.339,1.644-0.002,1.983,0.753l30.926,68.836c0.339,0.756,0.002,1.644-0.753,1.983
		C313.801,249.87,313.593,249.913,313.387,249.913z"/>
	<path class="st0" d="M204.646,370.625c-0.502,0-0.993-0.252-1.277-0.71c-0.436-0.705-0.219-1.629,0.486-2.065l83.8-51.876
		c0.706-0.437,1.629-0.218,2.065,0.486c0.436,0.705,0.219,1.629-0.486,2.065l-83.8,51.876
		C205.188,370.552,204.916,370.625,204.646,370.625z"/>
	<path class="st0" d="M150.103,170.535c-0.659,0-1.264-0.438-1.446-1.105l-14.294-52.309c-0.219-0.799,0.252-1.624,1.051-1.842
		c0.801-0.217,1.625,0.252,1.842,1.051l14.294,52.309c0.219,0.799-0.252,1.624-1.051,1.842
		C150.367,170.518,150.233,170.535,150.103,170.535z"/>
	<g>
		<circle class="st1" cx="320.697" cy="284.759" r="45.583"/>
		<linearGradient id="SVGID_1_" gradientUnits="userSpaceOnUse" x1="272.355" y1="293.2831" x2="369.0394" y2="276.235">
			<stop  offset="0" style="stop-color:#00B4E5"/>
			<stop  offset="1" style="stop-color:#1CD0BB"/>
		</linearGradient>
		<path class="st2" d="M320.697,333.842c-27.064,0-49.083-22.019-49.083-49.083c0-27.064,22.019-49.083,49.083-49.083
			s49.083,22.019,49.083,49.083C369.78,311.823,347.762,333.842,320.697,333.842z M320.697,242.676
			c-23.205,0-42.083,18.878-42.083,42.083s18.878,42.083,42.083,42.083s42.083-18.878,42.083-42.083
			S343.902,242.676,320.697,242.676z"/>
	</g>
	<g>
		<circle class="st1" cx="157.956" cy="207.073" r="45.583"/>
		
			<linearGradient id="SVGID_00000162314038620773205480000018230372074253036435_" gradientUnits="userSpaceOnUse" x1="109.6138" y1="215.597" x2="206.2982" y2="198.549">
			<stop  offset="0" style="stop-color:#00B4E5"/>
			<stop  offset="1" style="stop-color:#1CD0BB"/>
		</linearGradient>
		<path style="fill:url(#SVGID_00000162314038620773205480000018230372074253036435_);" d="M157.956,256.156
			c-27.064,0-49.083-22.019-49.083-49.083c0-27.064,22.019-49.083,49.083-49.083s49.083,22.019,49.083,49.083
			C207.039,234.137,185.021,256.156,157.956,256.156z M157.956,164.99c-23.205,0-42.083,18.878-42.083,42.083
			s18.878,42.083,42.083,42.083s42.083-18.878,42.083-42.083S181.161,164.99,157.956,164.99z"/>
	</g>
	<g>
		<circle class="st1" cx="131.02" cy="77.382" r="45.583"/>
		
			<linearGradient id="SVGID_00000070100954393772028070000015009910256302208641_" gradientUnits="userSpaceOnUse" x1="82.6784" y1="85.9061" x2="179.3622" y2="68.8581">
			<stop  offset="0" style="stop-color:#00B4E5"/>
			<stop  offset="1" style="stop-color:#1CD0BB"/>
		</linearGradient>
		<path style="fill:url(#SVGID_00000070100954393772028070000015009910256302208641_);" d="M131.021,126.465
			c-27.064,0-49.083-22.019-49.083-49.083c0-27.064,22.019-49.083,49.083-49.083c27.064,0,49.083,22.019,49.083,49.083
			C180.103,104.446,158.084,126.465,131.021,126.465z M131.021,35.299c-23.205,0-42.083,18.878-42.083,42.083
			s18.878,42.083,42.083,42.083s42.083-18.878,42.083-42.083S154.225,35.299,131.021,35.299z"/>
	</g>
	<g>
		<circle class="st1" cx="278.668" cy="150.209" r="45.583"/>
		
			<linearGradient id="SVGID_00000134222903456075247530000004970054179820173211_" gradientUnits="userSpaceOnUse" x1="230.3263" y1="158.7328" x2="327.0107" y2="141.6847">
			<stop  offset="0" style="stop-color:#00B4E5"/>
			<stop  offset="1" style="stop-color:#1CD0BB"/>
		</linearGradient>
		<path style="fill:url(#SVGID_00000134222903456075247530000004970054179820173211_);" d="M278.668,199.292
			c-27.064,0-49.083-22.019-49.083-49.083c0-27.064,22.019-49.083,49.083-49.083s49.083,22.019,49.083,49.083
			C327.751,177.273,305.733,199.292,278.668,199.292z M278.668,108.126c-23.205,0-42.083,18.878-42.083,42.083
			s18.878,42.083,42.083,42.083s42.083-18.878,42.083-42.083S301.873,108.126,278.668,108.126z"/>
	</g>
	<g>
		<circle class="st1" cx="398.383" cy="105.315" r="45.583"/>
		
			<linearGradient id="SVGID_00000155847770461275761680000016635972058159509640_" gradientUnits="userSpaceOnUse" x1="350.0411" y1="113.8397" x2="446.725" y2="96.7917">
			<stop  offset="0" style="stop-color:#00B4E5"/>
			<stop  offset="1" style="stop-color:#1CD0BB"/>
		</linearGradient>
		<path style="fill:url(#SVGID_00000155847770461275761680000016635972058159509640_);" d="M398.383,154.398
			c-27.064,0-49.083-22.019-49.083-49.083c0-27.064,22.019-49.083,49.083-49.083c27.064,0,49.083,22.019,49.083,49.083
			C447.466,132.38,425.447,154.398,398.383,154.398z M398.383,63.233c-23.205,0-42.083,18.878-42.083,42.083
			s18.878,42.083,42.083,42.083s42.083-18.878,42.083-42.083S421.588,63.233,398.383,63.233z"/>
	</g>
	<g>
		<circle class="st1" cx="592.92" cy="105.315" r="45.583"/>
		
			<linearGradient id="SVGID_00000134249786170601198320000006430184640072451466_" gradientUnits="userSpaceOnUse" x1="544.5778" y1="113.8397" x2="641.2621" y2="96.7916">
			<stop  offset="0" style="stop-color:#00B4E5"/>
			<stop  offset="1" style="stop-color:#1CD0BB"/>
		</linearGradient>
		<path style="fill:url(#SVGID_00000134249786170601198320000006430184640072451466_);" d="M592.92,154.398
			c-27.064,0-49.083-22.019-49.083-49.083c0-27.064,22.019-49.083,49.083-49.083s49.083,22.019,49.083,49.083
			C642.003,132.38,619.984,154.398,592.92,154.398z M592.92,63.233c-23.205,0-42.083,18.878-42.083,42.083
			s18.878,42.083,42.083,42.083s42.083-18.878,42.083-42.083S616.125,63.233,592.92,63.233z"/>
	</g>
	<g>
		<circle class="st1" cx="688.692" cy="215.054" r="45.583"/>
		
			<linearGradient id="SVGID_00000156582848893448059070000001340724825299692189_" gradientUnits="userSpaceOnUse" x1="640.3492" y1="223.578" x2="737.0336" y2="206.5299">
			<stop  offset="0" style="stop-color:#00B4E5"/>
			<stop  offset="1" style="stop-color:#1CD0BB"/>
		</linearGradient>
		<path style="fill:url(#SVGID_00000156582848893448059070000001340724825299692189_);" d="M688.691,264.137
			c-27.064,0-49.083-22.019-49.083-49.083c0-27.064,22.019-49.083,49.083-49.083s49.083,22.019,49.083,49.083
			C737.774,242.118,715.756,264.137,688.691,264.137z M688.691,172.971c-23.205,0-42.083,18.878-42.083,42.083
			s18.878,42.083,42.083,42.083s42.083-18.878,42.083-42.083S711.896,172.971,688.691,172.971z"/>
	</g>
	<g>
		<circle class="st1" cx="493.157" cy="236.004" r="45.583"/>
		
			<linearGradient id="SVGID_00000137096452751061577140000013127391697364585874_" gradientUnits="userSpaceOnUse" x1="444.8151" y1="244.5282" x2="541.4995" y2="227.4801">
			<stop  offset="0" style="stop-color:#00B4E5"/>
			<stop  offset="1" style="stop-color:#1CD0BB"/>
		</linearGradient>
		<path style="fill:url(#SVGID_00000137096452751061577140000013127391697364585874_);" d="M493.157,285.087
			c-27.064,0-49.083-22.019-49.083-49.083c0-27.064,22.019-49.083,49.083-49.083s49.083,22.019,49.083,49.083
			C542.24,263.068,520.222,285.087,493.157,285.087z M493.157,193.921c-23.205,0-42.083,18.878-42.083,42.083
			s18.878,42.083,42.083,42.083s42.083-18.878,42.083-42.083S516.362,193.921,493.157,193.921z"/>
	</g>
	<g>
		<circle class="st1" cx="607.884" cy="379.662" r="45.583"/>
		
			<linearGradient id="SVGID_00000139280187103922300680000012673968475786411431_" gradientUnits="userSpaceOnUse" x1="559.5426" y1="388.186" x2="656.2261" y2="371.1381">
			<stop  offset="0" style="stop-color:#00B4E5"/>
			<stop  offset="1" style="stop-color:#1CD0BB"/>
		</linearGradient>
		<path style="fill:url(#SVGID_00000139280187103922300680000012673968475786411431_);" d="M607.884,428.745
			c-27.063,0-49.082-22.019-49.082-49.083c0-27.064,22.019-49.083,49.082-49.083c27.064,0,49.083,22.019,49.083,49.083
			C656.967,406.727,634.948,428.745,607.884,428.745z M607.884,337.579c-23.204,0-42.082,18.878-42.082,42.083
			s18.878,42.083,42.082,42.083c23.205,0,42.083-18.879,42.083-42.083S631.089,337.579,607.884,337.579z"/>
	</g>
	<g>
		<circle class="st1" cx="169.928" cy="379.662" r="45.583"/>
		
			<linearGradient id="SVGID_00000118388947385122116180000014077096664089153707_" gradientUnits="userSpaceOnUse" x1="121.5856" y1="388.1861" x2="218.2695" y2="371.1381">
			<stop  offset="0" style="stop-color:#00B4E5"/>
			<stop  offset="1" style="stop-color:#1CD0BB"/>
		</linearGradient>
		<path style="fill:url(#SVGID_00000118388947385122116180000014077096664089153707_);" d="M169.928,428.745
			c-27.064,0-49.083-22.019-49.083-49.083c0-27.064,22.019-49.083,49.083-49.083c27.064,0,49.083,22.019,49.083,49.083
			C219.01,406.727,196.992,428.745,169.928,428.745z M169.928,337.579c-23.205,0-42.083,18.878-42.083,42.083
			s18.878,42.083,42.083,42.083s42.083-18.879,42.083-42.083S193.132,337.579,169.928,337.579z"/>
	</g>
	
		<linearGradient id="SVGID_00000163750975033533363290000008518010976974703766_" gradientUnits="userSpaceOnUse" x1="85.4209" y1="79.3151" x2="181.2094" y2="79.3151">
		<stop  offset="0" style="stop-color:#00B4E5"/>
		<stop  offset="1" style="stop-color:#1CD0BB"/>
	</linearGradient>
	
		<rect x="88.921" y="34.921" style="display:none;fill:#FFFFFF;stroke:url(#SVGID_00000163750975033533363290000008518010976974703766_);stroke-width:7;stroke-miterlimit:10;" width="88.788" height="88.788"/>
	
		<linearGradient id="SVGID_00000093873928254967922830000012677525598417621439_" gradientUnits="userSpaceOnUse" x1="108.3662" y1="208.0085" x2="204.1547" y2="208.0085">
		<stop  offset="0" style="stop-color:#00B4E5"/>
		<stop  offset="1" style="stop-color:#1CD0BB"/>
	</linearGradient>
	
		<rect x="111.866" y="163.614" style="display:none;fill:#FFFFFF;stroke:url(#SVGID_00000093873928254967922830000012677525598417621439_);stroke-width:7;stroke-miterlimit:10;" width="88.788" height="88.788"/>
	
		<linearGradient id="SVGID_00000155127305840744021870000018278972743303455874_" gradientUnits="userSpaceOnUse" x1="233.0691" y1="144.1765" x2="328.8576" y2="144.1765">
		<stop  offset="0" style="stop-color:#00B4E5"/>
		<stop  offset="1" style="stop-color:#1CD0BB"/>
	</linearGradient>
	
		<rect x="236.569" y="99.782" style="display:none;fill:#FFFFFF;stroke:url(#SVGID_00000155127305840744021870000018278972743303455874_);stroke-width:7;stroke-miterlimit:10;" width="88.788" height="88.788"/>
	
		<linearGradient id="SVGID_00000074401994680166032540000014229076288525860031_" gradientUnits="userSpaceOnUse" x1="272.974" y1="283.8279" x2="368.7625" y2="283.8279">
		<stop  offset="0" style="stop-color:#00B4E5"/>
		<stop  offset="1" style="stop-color:#1CD0BB"/>
	</linearGradient>
	
		<rect x="276.474" y="239.434" style="display:none;fill:#FFFFFF;stroke:url(#SVGID_00000074401994680166032540000014229076288525860031_);stroke-width:7;stroke-miterlimit:10;" width="88.788" height="88.788"/>
	
		<linearGradient id="SVGID_00000054230756527615560780000005211379030749184703_" gradientUnits="userSpaceOnUse" x1="118.3425" y1="370.6211" x2="214.1309" y2="370.6211">
		<stop  offset="0" style="stop-color:#00B4E5"/>
		<stop  offset="1" style="stop-color:#1CD0BB"/>
	</linearGradient>
	
		<rect x="121.842" y="326.227" style="display:none;fill:#FFFFFF;stroke:url(#SVGID_00000054230756527615560780000005211379030749184703_);stroke-width:7;stroke-miterlimit:10;" width="88.788" height="88.788"/>
	
		<linearGradient id="SVGID_00000039132190587329920580000005543033534045720982_" gradientUnits="userSpaceOnUse" x1="356.7744" y1="108.2462" x2="452.5628" y2="108.2462">
		<stop  offset="0" style="stop-color:#00B4E5"/>
		<stop  offset="1" style="stop-color:#1CD0BB"/>
	</linearGradient>
	
		<rect x="360.274" y="63.852" style="display:none;fill:#FFFFFF;stroke:url(#SVGID_00000039132190587329920580000005543033534045720982_);stroke-width:7;stroke-miterlimit:10;" width="88.788" height="88.788"/>
	
		<linearGradient id="SVGID_00000037660024412570445180000010993914408553471372_" gradientUnits="userSpaceOnUse" x1="530.3608" y1="96.2747" x2="626.1492" y2="96.2747">
		<stop  offset="0" style="stop-color:#00B4E5"/>
		<stop  offset="1" style="stop-color:#1CD0BB"/>
	</linearGradient>
	
		<rect x="533.861" y="51.88" style="display:none;fill:#FFFFFF;stroke:url(#SVGID_00000037660024412570445180000010993914408553471372_);stroke-width:7;stroke-miterlimit:10;" width="88.788" height="88.788"/>
	
		<linearGradient id="SVGID_00000070089958033677689250000001892839622099038865_" gradientUnits="userSpaceOnUse" x1="561.6957" y1="380.5973" x2="657.4841" y2="380.5973">
		<stop  offset="0" style="stop-color:#00B4E5"/>
		<stop  offset="1" style="stop-color:#1CD0BB"/>
	</linearGradient>
	
		<rect x="565.196" y="336.203" style="display:none;fill:#FFFFFF;stroke:url(#SVGID_00000070089958033677689250000001892839622099038865_);stroke-width:7;stroke-miterlimit:10;" width="88.788" height="88.788"/>
	
		<linearGradient id="SVGID_00000045585460693380598630000009373762393441532578_" gradientUnits="userSpaceOnUse" x1="459.5295" y1="237.9372" x2="555.318" y2="237.9372">
		<stop  offset="0" style="stop-color:#00B4E5"/>
		<stop  offset="1" style="stop-color:#1CD0BB"/>
	</linearGradient>
	
		<rect x="463.03" y="193.543" style="display:none;fill:#FFFFFF;stroke:url(#SVGID_00000045585460693380598630000009373762393441532578_);stroke-width:7;stroke-miterlimit:10;" width="88.788" height="88.788"/>
	
		<linearGradient id="SVGID_00000115488516866676866560000006666175182450091445_" gradientUnits="userSpaceOnUse" x1="637.1064" y1="218.9824" x2="732.8949" y2="218.9824">
		<stop  offset="0" style="stop-color:#00B4E5"/>
		<stop  offset="1" style="stop-color:#1CD0BB"/>
	</linearGradient>
	
		<rect x="640.606" y="174.588" style="display:none;fill:#FFFFFF;stroke:url(#SVGID_00000115488516866676866560000006666175182450091445_);stroke-width:7;stroke-miterlimit:10;" width="88.788" height="88.788"/>
	<g>
		<path class="st0" d="M131.186,45.988c0.768,0,1.52,0.276,2.118,0.778c0.031,0.026,0.062,0.05,0.094,0.074l23.307,17.304
			c0.192,0.188,0.301,0.445,0.301,0.716v32.382h-51V64.839c0-0.266,0.106-0.521,0.293-0.707l22.897-17.421
			c0.017-0.013,0.034-0.026,0.051-0.04C129.797,46.224,130.467,45.988,131.186,45.988 M131.186,43.988
			c-1.135,0-2.266,0.372-3.2,1.131L105.01,62.6c-0.639,0.569-1.004,1.384-1.004,2.239v33.403c0,0.552,0.448,1,1,1h52.556
			c0.794,0,1.444-0.65,1.444-1.444V64.86c0-0.868-0.376-1.693-1.03-2.263L134.59,45.235
			C133.608,44.41,132.395,43.988,131.186,43.988L131.186,43.988z"/>
		
			<rect x="102.163" y="83.368" transform="matrix(0.8905 -0.455 0.455 0.8905 -23.9795 69.1042)" class="st0" width="58.811" height="2"/>
		
			<rect x="117.736" y="62.003" transform="matrix(0.4149 -0.9099 0.9099 0.4149 -0.9241 153.2982)" class="st0" width="2" height="30.728"/>
		<g>
			<path class="st0" d="M137.248,59.375c0.202,0,0.407,0.06,0.585,0.185c0.465,0.324,0.579,0.963,0.255,1.428l-6.749,9.686
				c-0.171,0.246-0.441,0.405-0.74,0.434c-0.034,0.003-0.068,0.005-0.102,0.005c-0.263,0-0.517-0.101-0.709-0.284l-5.168-4.942
				c-0.409-0.391-0.424-1.04-0.032-1.45c0.202-0.211,0.472-0.317,0.742-0.317c0.255,0,0.51,0.094,0.708,0.284l4.303,4.114
				l6.065-8.703C136.605,59.528,136.924,59.375,137.248,59.375 M137.248,57.575L137.248,57.575c-0.925,0-1.792,0.453-2.32,1.211
				l-4.863,6.978l-2.784-2.661c-0.527-0.505-1.221-0.783-1.952-0.783c-0.768,0-1.512,0.318-2.043,0.873
				c-0.521,0.545-0.8,1.261-0.783,2.016c0.017,0.755,0.327,1.457,0.872,1.979l5.168,4.942c0.527,0.505,1.221,0.783,1.953,0.783
				c0.092,0,0.185-0.005,0.278-0.014c0.824-0.081,1.567-0.517,2.041-1.196l6.75-9.686c0.432-0.619,0.596-1.369,0.463-2.112
				c-0.133-0.743-0.547-1.39-1.166-1.821C138.387,57.751,137.828,57.575,137.248,57.575L137.248,57.575z"/>
			<path class="st0" d="M131.506,78.284c-7.398,0-13.417-6.019-13.417-13.417s6.019-13.417,13.417-13.417
				s13.417,6.019,13.417,13.417S138.904,78.284,131.506,78.284z M131.506,53.451c-6.295,0-11.417,5.122-11.417,11.417
				c0,6.295,5.122,11.417,11.417,11.417c6.295,0,11.417-5.122,11.417-11.417C142.923,58.572,137.802,53.451,131.506,53.451z"/>
		</g>
	</g>
	<g>
		<g>
			<path class="st0" d="M157.669,181.001c4.071,0,7.383,3.312,7.383,7.383v3.481c0,4.071-3.312,7.383-7.383,7.383h-0.291
				c-4.071,0-7.383-3.312-7.383-7.383v-3.481c0-4.071,3.312-7.383,7.383-7.383H157.669 M157.669,179.001h-0.292
				c-5.16,0-9.383,4.222-9.383,9.383v3.481c0,5.16,4.222,9.383,9.383,9.383h0.291c5.16,0,9.383-4.222,9.383-9.383v-3.481
				C167.052,183.224,162.829,179.001,157.669,179.001L157.669,179.001z"/>
			<path class="st0" d="M157.523,205.877c4.543,0,8.757,1.919,11.865,5.405c3.553,3.983,5.227,9.434,4.594,14.955l-0.573,4.998
				h-31.772l-0.573-4.998c-0.633-5.521,1.041-10.971,4.594-14.955C148.766,207.797,152.98,205.877,157.523,205.877 M157.523,203.877
				L157.523,203.877c-11.57,0-19.787,10.903-18.446,22.588l0.777,6.77h35.339l0.777-6.77
				C177.31,214.78,169.094,203.877,157.523,203.877L157.523,203.877z"/>
		</g>
	</g>
	<g>
		<path class="st0" d="M579.909,131.504c-0.027,0-0.056-0.001-0.084-0.003c-0.4-0.034-0.742-0.305-0.867-0.688l-1.942-5.972
			l-6.018,1.794c-0.385,0.113-0.803-0.012-1.058-0.323c-0.256-0.31-0.301-0.743-0.114-1.1l8.655-16.534l1.771,0.928l-7.557,14.435
			l4.683-1.396c0.524-0.154,1.069,0.133,1.237,0.649l1.509,4.64l7.459-14.247l1.771,0.928l-8.561,16.352
			C580.621,131.3,580.279,131.504,579.909,131.504z"/>
		<path class="st0" d="M607.105,131.504c-0.372,0-0.716-0.207-0.889-0.541l-8.285-16.03l1.777-0.918l7.186,13.904l1.504-4.624
			c0.169-0.517,0.714-0.803,1.237-0.649l4.683,1.396l-7.557-14.435l1.771-0.928l8.655,16.534c0.187,0.356,0.142,0.79-0.114,1.1
			c-0.255,0.311-0.671,0.436-1.058,0.323l-6.018-1.794l-1.942,5.972c-0.125,0.384-0.468,0.655-0.87,0.688
			C607.159,131.503,607.132,131.504,607.105,131.504z"/>
		<path class="st0" d="M588.194,115.474c-0.087,0-0.174-0.011-0.259-0.034c-0.271-0.073-0.5-0.257-0.63-0.507l-2.603-5.036
			l-5.664,0.264c-0.279,0.01-0.556-0.093-0.754-0.292c-0.199-0.199-0.305-0.473-0.292-0.753l0.265-5.664l-5.037-2.604
			c-0.25-0.129-0.435-0.357-0.507-0.629c-0.073-0.272-0.028-0.562,0.124-0.798l3.061-4.773l-3.061-4.773
			c-0.152-0.237-0.197-0.526-0.124-0.798c0.072-0.272,0.257-0.5,0.507-0.629l5.037-2.604l-0.265-5.664
			c-0.013-0.281,0.093-0.555,0.292-0.753c0.198-0.199,0.476-0.301,0.754-0.292l5.664,0.264l2.603-5.037
			c0.13-0.25,0.358-0.434,0.63-0.507c0.271-0.073,0.562-0.028,0.799,0.124l4.773,3.06l4.772-3.06
			c0.238-0.152,0.528-0.197,0.799-0.124c0.271,0.073,0.5,0.257,0.63,0.507l2.603,5.037l5.664-0.264
			c0.283-0.011,0.555,0.093,0.754,0.292c0.199,0.199,0.305,0.473,0.292,0.753l-0.265,5.664l5.037,2.604
			c0.25,0.129,0.435,0.357,0.507,0.629c0.073,0.272,0.028,0.562-0.124,0.798l-3.061,4.773l3.061,4.773
			c0.152,0.237,0.197,0.526,0.124,0.798c-0.072,0.272-0.257,0.5-0.507,0.629l-5.037,2.604l0.265,5.664
			c0.013,0.281-0.093,0.555-0.292,0.753c-0.199,0.199-0.47,0.304-0.754,0.292l-5.664-0.264l-2.603,5.036
			c-0.13,0.25-0.358,0.434-0.63,0.507c-0.271,0.073-0.561,0.028-0.799-0.124l-4.772-3.06l-4.773,3.06
			C588.571,115.42,588.384,115.474,588.194,115.474z M585.297,107.868c0.373,0,0.716,0.208,0.889,0.541l2.394,4.631l4.389-2.813
			c0.33-0.211,0.75-0.211,1.08,0l4.388,2.813l2.394-4.631c0.18-0.347,0.547-0.553,0.936-0.54l5.208,0.243l-0.243-5.208
			c-0.019-0.39,0.192-0.755,0.54-0.935l4.631-2.394l-2.813-4.389c-0.211-0.329-0.211-0.75,0-1.079l2.813-4.389l-4.631-2.394
			c-0.348-0.179-0.559-0.544-0.54-0.935l0.243-5.208l-5.208,0.243c-0.388,0.015-0.756-0.192-0.936-0.54l-2.394-4.631l-4.388,2.813
			c-0.33,0.211-0.75,0.211-1.08,0l-4.389-2.814l-2.394,4.631c-0.18,0.348-0.551,0.555-0.936,0.54l-5.208-0.243l0.243,5.208
			c0.019,0.39-0.192,0.755-0.54,0.935l-4.631,2.394l2.813,4.389c0.211,0.329,0.211,0.75,0,1.079l-2.813,4.389l4.631,2.394
			c0.348,0.179,0.559,0.544,0.54,0.935l-0.243,5.208l5.208-0.243C585.266,107.869,585.281,107.868,585.297,107.868z
			 M593.508,106.611c-6.598,0-11.965-5.367-11.965-11.965c0-6.597,5.367-11.964,11.965-11.964c6.597,0,11.964,5.367,11.964,11.964
			C605.472,101.244,600.104,106.611,593.508,106.611z M593.508,84.682c-5.495,0-9.965,4.47-9.965,9.964
			c0,5.495,4.47,9.965,9.965,9.965c5.494,0,9.964-4.47,9.964-9.965C603.472,89.152,599.002,84.682,593.508,84.682z"/>
	</g>
	<g>
		<path class="st0" d="M498.226,235.744c-0.159,0-0.319-0.038-0.466-0.115l-4.578-2.407l-4.578,2.407
			c-0.337,0.177-0.744,0.148-1.054-0.076c-0.308-0.224-0.462-0.603-0.397-0.978l0.874-5.099l-3.704-3.611
			c-0.272-0.266-0.37-0.663-0.253-1.025c0.118-0.362,0.431-0.626,0.808-0.681l5.118-0.744l2.29-4.639
			c0.336-0.683,1.457-0.683,1.793,0l2.29,4.639l5.119,0.744c0.377,0.055,0.689,0.319,0.808,0.681c0.117,0.362,0.02,0.76-0.253,1.025
			l-3.705,3.61l0.874,5.099c0.064,0.375-0.09,0.754-0.397,0.978C498.639,235.68,498.433,235.744,498.226,235.744z M493.182,231.092
			c0.16,0,0.319,0.038,0.466,0.115l3.25,1.709l-0.62-3.62c-0.056-0.324,0.052-0.655,0.287-0.885l2.63-2.563l-3.634-0.528
			c-0.326-0.047-0.607-0.252-0.753-0.547l-1.626-3.293l-1.626,3.293c-0.146,0.295-0.427,0.5-0.753,0.547l-3.634,0.528l2.63,2.563
			c0.235,0.229,0.343,0.561,0.287,0.885l-0.62,3.62l3.25-1.709C492.862,231.13,493.021,231.092,493.182,231.092z"/>
		<path class="st0" d="M509.522,233.742l-0.574-1.915c4.886-1.467,8.169-5.589,8.169-10.255v-3.522h-7.882v-2h8.882
			c0.553,0,1,0.448,1,1v4.522C519.117,227.128,515.262,232.02,509.522,233.742z"/>
		<path class="st0" d="M478.258,233.742c-5.739-1.723-9.595-6.614-9.595-12.17v-4.522c0-0.552,0.447-1,1-1h8.882v2h-7.882v3.522
			c0,4.667,3.283,8.788,8.169,10.255L478.258,233.742z"/>
		<path class="st0" d="M508.295,259.572v2.925h-30.227v-2.925H508.295 M510.295,257.572h-34.227v6.925h34.227V257.572
			L510.295,257.572z"/>
		<path class="st0" d="M501.7,254.634v2.925h-17.036v-2.925H501.7 M503.7,252.634h-21.036v6.925H503.7V252.634L503.7,252.634z"/>
		<path class="st0" d="M507.772,211.372v19.431c0,5.825-3.695,11.12-9.194,13.175c-0.782,0.292-1.3,1.039-1.3,1.873v6.657h-7.16
			v-6.657c0-0.834-0.518-1.581-1.3-1.873c-5.499-2.056-9.194-7.35-9.194-13.175v-19.431H507.772 M509.772,209.372h-32.148v21.431
			c0,6.878,4.387,12.766,10.494,15.049v8.657h11.16v-8.657c6.107-2.283,10.494-8.171,10.494-15.049V209.372L509.772,209.372z"/>
	</g>
	<g>
		<path class="st0" d="M717.328,196.491v40.014c-5.075,0.339-18.939,1.564-27.352,5.209c-8.511-3.42-22.274-4.783-27.29-5.183
			v-39.992c5.093,0.449,18.185,1.872,26.585,5.197l0.792,0.314l0.775-0.354C698.822,198.048,712.208,196.834,717.328,196.491
			 M719.328,194.374c0,0-18.862,0.724-29.321,5.502c-10.974-4.344-29.321-5.502-29.321-5.502v44.018c0,0,19.376,1.158,29.321,5.502
			c9.774-4.633,29.321-5.502,29.321-5.502V194.374L719.328,194.374z"/>
		<g>
			<g>
				<path class="st0" d="M690.428,201.352l-1.135-1.647c0.539-0.372,13.361-9.1,26.816-9.1h1v5.562h-2v-3.544
					C702.633,193.049,690.552,201.266,690.428,201.352z"/>
				<path class="st0" d="M690.81,201.046l-1.528-1.29c0.438-0.519,10.871-12.712,23.57-12.712h1v4.561h-2v-2.533
					C700.519,189.71,690.908,200.929,690.81,201.046z"/>
			</g>
			<g>
				<path class="st0" d="M689.587,201.352c-0.124-0.085-12.205-8.303-24.682-8.73v3.544h-2v-5.562h1
					c13.455,0,26.277,8.729,26.816,9.1L689.587,201.352z"/>
				<path class="st0" d="M689.205,201.046c-0.099-0.117-9.709-11.336-21.042-11.974v2.533h-2v-4.561h1
					c12.699,0,23.132,12.193,23.57,12.712L689.205,201.046z"/>
			</g>
		</g>
		<rect x="689.007" y="200.89" class="st0" width="2" height="41.701"/>
		<path class="st0" d="M676.095,229.61l-3.358-4.083l-5.285-0.08l1.099-5.171l-3.234-4.182l4.729-2.365l1.253-5.136l4.798,2.222
			l4.796-2.222l1.254,5.136l4.729,2.365l-3.233,4.182l1.099,5.171l-5.285,0.08L676.095,229.61z M669.912,223.485l3.781,0.056
			l2.401,2.921l2.401-2.921l3.781-0.056l-0.786-3.699l2.312-2.991l-3.381-1.692l-0.896-3.673l-3.431,1.589l-3.431-1.589
			l-0.897,3.673l-3.381,1.691l2.312,2.991L669.912,223.485z"/>
		<g>
			<g>
				<polygon class="st0" points="702.448,209.567 702.448,215.273 702.896,220.763 705.256,220.763 705.705,215.273 
					705.705,209.567 				"/>
				<path class="st0" d="M705.705,209.567v5.706l-0.449,5.49h-2.36l-0.448-5.49v-5.706H705.705 M706.205,209.067h-0.5h-3.257h-0.5
					v0.5v5.706l0.45,5.531l0.038,0.459h0.461h2.36h0.461l0.038-0.459l0.449-5.49l0.002-5.747V209.067L706.205,209.067z"/>
			</g>
			<g>
				<rect x="702.697" y="224.617" class="st0" width="2.758" height="2.561"/>
				<path class="st0" d="M705.455,224.617v2.561h-2.758v-2.561H705.455 M705.955,224.117h-0.5h-2.758h-0.5v0.5v2.561v0.5h0.5h2.758
					h0.5v-0.5v-2.561V224.117L705.955,224.117z"/>
			</g>
		</g>
	</g>
	<g>
		<path class="st0" d="M610.593,358.294h-13.397c-0.553,0-1-0.448-1-1s0.447-1,1-1h13.397c0.553,0,1,0.448,1,1
			S611.146,358.294,610.593,358.294z"/>
		<path class="st0" d="M610.425,362.347h-13.229c-0.553,0-1-0.448-1-1s0.447-1,1-1h13.229c0.553,0,1,0.448,1,1
			S610.978,362.347,610.425,362.347z"/>
		<path class="st0" d="M610.593,366.4h-13.397c-0.553,0-1-0.448-1-1s0.447-1,1-1h13.397c0.553,0,1,0.448,1,1
			S611.146,366.4,610.593,366.4z"/>
		<polygon class="st0" points="624.327,375.45 622.327,375.45 622.327,357.965 615.063,357.966 615.063,350.686 593.998,350.686 
			593.998,375.45 591.998,375.45 591.998,348.686 617.063,348.686 617.063,355.966 624.327,355.965 		"/>
		
			<rect x="618.964" y="347.915" transform="matrix(0.7086 -0.7056 0.7056 0.7086 -68.4392 540.3105)" class="st0" width="2" height="10.206"/>
		<path class="st0" d="M628.908,376.265v29.341h-41.926v-29.341H628.908 M629.908,374.265h-43.926c-0.552,0-1,0.448-1,1v31.341
			c0,0.552,0.448,1,1,1h43.926c0.552,0,1-0.448,1-1v-31.341C630.908,374.713,630.46,374.265,629.908,374.265L629.908,374.265z"/>
		<path class="st0" d="M614.668,375.224c-0.553,0-1-0.448-1-1v-2.265c0-0.777-0.466-1.434-1.017-1.434h-9.413
			c-0.551,0-1.017,0.657-1.017,1.434v2.265c0,0.552-0.447,1-1,1s-1-0.448-1-1v-2.265c0-1.894,1.354-3.434,3.017-3.434h9.413
			c1.663,0,3.017,1.541,3.017,3.434v2.265C615.668,374.776,615.221,375.224,614.668,375.224z"/>
		<path class="st0" d="M610.416,391.245v2.387h-4.942v-2.387H610.416 M611.416,389.245h-6.942c-0.552,0-1,0.448-1,1v4.387
			c0,0.552,0.448,1,1,1h6.942c0.552,0,1-0.448,1-1v-4.387C612.416,389.693,611.968,389.245,611.416,389.245L611.416,389.245z"/>
		<g>
			<path class="st0" d="M604.258,394.163c-11.533,0-18.236-3.772-18.517-3.933l0.994-1.735c0.064,0.037,6.562,3.668,17.522,3.668
				V394.163z"/>
			<path class="st0" d="M611.735,394.163v-2c10.962,0,17.459-3.631,17.523-3.668l0.994,1.735
				C629.973,390.391,623.27,394.163,611.735,394.163z"/>
		</g>
	</g>
	<g>
		<g>
			<g>
				<path class="st0" d="M328.477,278.057c-0.238,0-0.472-0.085-0.657-0.246c-0.267-0.232-0.391-0.588-0.327-0.937l0.702-3.774
					c-2.814-4.186-2.485-9.686,0.856-13.522c4.037-4.635,11.093-5.122,15.727-1.085c2.246,1.955,3.595,4.668,3.8,7.638
					c0.205,2.971-0.759,5.843-2.715,8.088c-3.368,3.867-8.979,4.924-13.5,2.597l-3.57,1.189
					C328.689,278.041,328.583,278.057,328.477,278.057z M332.458,274.731c0.171,0,0.341,0.044,0.494,0.13
					c3.762,2.136,8.558,1.312,11.404-1.955c1.605-1.842,2.396-4.2,2.228-6.637c-0.168-2.438-1.276-4.664-3.118-6.268
					c-3.804-3.312-9.593-2.913-12.906,0.891c-2.821,3.239-3.025,7.923-0.497,11.39c0.162,0.222,0.225,0.501,0.175,0.772
					l-0.468,2.519l2.372-0.79C332.245,274.749,332.352,274.731,332.458,274.731z"/>
				<g>
					<circle class="st23" cx="332.745" cy="266.858" r="1.48"/>
					<circle class="st23" cx="337.615" cy="266.858" r="1.48"/>
					<circle class="st23" cx="342.485" cy="266.858" r="1.48"/>
				</g>
			</g>
			<g>
				<path class="st0" d="M313.361,278.057c-0.106,0-0.212-0.017-0.316-0.051l-3.57-1.189c-4.521,2.328-10.132,1.271-13.5-2.597
					c-1.956-2.246-2.919-5.118-2.715-8.088c0.205-2.97,1.555-5.683,3.8-7.639c2.245-1.956,5.114-2.919,8.088-2.714
					c2.97,0.205,5.683,1.554,7.638,3.8c3.341,3.836,3.67,9.336,0.857,13.522l0.701,3.773c0.064,0.348-0.06,0.704-0.327,0.937
					C313.833,277.972,313.599,278.057,313.361,278.057z M304.367,257.752c-2.206,0-4.314,0.787-5.994,2.25
					c-1.843,1.604-2.95,3.831-3.118,6.268c-0.168,2.438,0.623,4.794,2.227,6.637c2.846,3.268,7.643,4.089,11.404,1.955
					c0.247-0.14,0.54-0.168,0.81-0.079l2.372,0.79l-0.468-2.519c-0.05-0.271,0.013-0.55,0.175-0.772
					c2.528-3.467,2.324-8.15-0.497-11.39c-1.604-1.842-3.831-2.95-6.268-3.118C304.795,257.759,304.581,257.752,304.367,257.752z"/>
				<g>
					<circle class="st23" cx="309.094" cy="266.858" r="1.48"/>
					<circle class="st23" cx="304.223" cy="266.858" r="1.48"/>
					<circle class="st23" cx="299.353" cy="266.858" r="1.48"/>
				</g>
			</g>
		</g>
		<path class="st23" d="M335.124,282.443c1.379,0,2.5,1.121,2.5,2.5v2.228c0,1.379-1.121,2.5-2.5,2.5h-0.619
			c-1.379,0-2.5-1.121-2.5-2.5v-2.228c0-1.379,1.121-2.5,2.5-2.5H335.124 M335.124,280.443h-0.619c-2.475,0-4.5,2.025-4.5,4.5v2.228
			c0,2.475,2.025,4.5,4.5,4.5h0.619c2.475,0,4.5-2.025,4.5-4.5v-2.228C339.624,282.468,337.599,280.443,335.124,280.443
			L335.124,280.443z"/>
		<path class="st23" d="M307.204,282.443c1.379,0,2.5,1.121,2.5,2.5v2.228c0,1.379-1.121,2.5-2.5,2.5h-0.619
			c-1.379,0-2.5-1.121-2.5-2.5v-2.228c0-1.379,1.121-2.5,2.5-2.5H307.204 M307.204,280.443h-0.619c-2.475,0-4.5,2.025-4.5,4.5v2.228
			c0,2.475,2.025,4.5,4.5,4.5h0.619c2.475,0,4.5-2.025,4.5-4.5v-2.228C311.704,282.468,309.679,280.443,307.204,280.443
			L307.204,280.443z"/>
		<path class="st23" d="M321.065,287.284c1.379,0,2.5,1.122,2.5,2.5v2.228c0,1.379-1.121,2.5-2.5,2.5h-0.619
			c-1.379,0-2.5-1.121-2.5-2.5v-2.228c0-1.379,1.121-2.5,2.5-2.5H321.065 M321.065,285.284h-0.619c-2.475,0-4.5,2.025-4.5,4.5v2.228
			c0,2.475,2.025,4.5,4.5,4.5h0.619c2.475,0,4.5-2.025,4.5-4.5v-2.228C325.565,287.309,323.54,285.284,321.065,285.284
			L321.065,285.284z"/>
		<path class="st23" d="M342.486,308.386h-12.817c-0.552,0-1-0.448-1-1s0.448-1,1-1h11.932l0.246-2.011
			c0.281-2.453-0.459-4.876-2.033-6.64c-1.399-1.569-3.309-2.433-5.379-2.433c-4.349,0-6.069,3.845-6.606,5.498
			c-0.171,0.526-0.735,0.812-1.26,0.642c-0.525-0.171-0.812-0.735-0.642-1.26c1.401-4.308,4.582-6.88,8.509-6.88
			c2.647,0,5.088,1.102,6.872,3.102c1.953,2.189,2.874,5.181,2.526,8.207l-0.354,2.897
			C343.417,308.009,342.991,308.386,342.486,308.386z"/>
		<path class="st23" d="M312.063,308.386h-12.71c-0.505,0-0.931-0.377-0.993-0.878l-0.354-2.889
			c-0.348-3.034,0.573-6.025,2.525-8.214c1.784-2,4.224-3.102,6.872-3.102c3.946,0,7.255,2.636,8.636,6.88
			c0.17,0.525-0.117,1.089-0.642,1.26c-0.525,0.172-1.089-0.117-1.26-0.642c-1.12-3.442-3.637-5.498-6.733-5.498
			c-2.069,0-3.98,0.864-5.379,2.433c-1.574,1.765-2.314,4.188-2.032,6.648l0.245,2.003h11.826c0.552,0,1,0.448,1,1
			S312.616,308.386,312.063,308.386z"/>
		<path class="st23" d="M320.756,299.84c2.007,0,3.871,0.851,5.25,2.397c1.605,1.8,2.361,4.27,2.074,6.776l-0.189,1.645h-14.269
			l-0.189-1.645c-0.287-2.506,0.468-4.976,2.074-6.776C316.885,300.691,318.749,299.84,320.756,299.84 M320.756,297.84
			L320.756,297.84c-5.84,0-9.987,5.503-9.31,11.401l0.392,3.417h17.837l0.392-3.417C330.743,303.343,326.596,297.84,320.756,297.84
			L320.756,297.84z"/>
	</g>
	<g>
		<path class="st0" d="M403.225,97.845v21.294h-10.768c-0.508,0-0.996,0.193-1.367,0.54l-8.168,7.646l1.722-5.598
			c0.187-0.607,0.074-1.266-0.303-1.776c-0.377-0.511-0.974-0.812-1.609-0.812h-9.327V97.845H403.225 M404.498,95.845h-32.365
			c-0.402,0-0.727,0.326-0.727,0.727v23.839c0,0.402,0.326,0.727,0.727,0.727h10.6l-3.078,10.005
			c-0.169,0.551,0.271,1.005,0.746,1.005c0.179,0,0.363-0.065,0.522-0.213l11.534-10.797h12.041c0.402,0,0.727-0.326,0.727-0.727
			V96.573C405.225,96.171,404.899,95.845,404.498,95.845L404.498,95.845z"/>
		<g>
			<path class="st0" d="M397.358,104.24h-18.086c-0.552,0-1-0.448-1-1s0.448-1,1-1h18.086c0.552,0,1,0.448,1,1
				S397.911,104.24,397.358,104.24z"/>
			<path class="st0" d="M397.358,109.334h-18.086c-0.552,0-1-0.448-1-1s0.448-1,1-1h18.086c0.552,0,1,0.448,1,1
				S397.911,109.334,397.358,109.334z"/>
			<path class="st0" d="M390.116,114.43h-10.843c-0.552,0-1-0.448-1-1s0.448-1,1-1h10.843c0.552,0,1,0.448,1,1
				S390.668,114.43,390.116,114.43z"/>
		</g>
		<path class="st0" d="M421.725,78.457v13.388h-5.787c-0.635,0-1.232,0.301-1.609,0.812c-0.377,0.511-0.489,1.17-0.303,1.776
			l0.493,1.602l-3.899-3.65c-0.371-0.347-0.859-0.54-1.367-0.54h-6.777V78.457H421.725 M423.225,76.457h-22.249
			c-0.276,0-0.5,0.224-0.5,0.5v16.388c0,0.276,0.224,0.5,0.5,0.5h8.278l7.929,7.423c0.109,0.102,0.236,0.146,0.359,0.146
			c0.327,0,0.63-0.313,0.513-0.691l-2.116-6.878h7.287c0.276,0,0.5-0.224,0.5-0.5V76.957
			C423.725,76.681,423.501,76.457,423.225,76.457L423.225,76.457z"/>
		<path class="st0" d="M417.494,83.912h-10.788c-0.552,0-1-0.448-1-1s0.448-1,1-1h10.788c0.553,0,1,0.448,1,1
			S418.047,83.912,417.494,83.912z"/>
		<path class="st0" d="M413.175,88.535h-6.468c-0.552,0-1-0.448-1-1s0.448-1,1-1h6.468c0.553,0,1,0.448,1,1
			S413.728,88.535,413.175,88.535z"/>
	</g>
	<g>
		<path class="st0" d="M303.91,176.338h-18.537v-2h17.537v-21.277h-10.26c-0.552,0-1-0.448-1-1v-3.5h-2.589c-0.552,0-1-0.448-1-1
			V136.93c0-0.552,0.448-1,1-1h0.218l-10.044-6.836l-10.044,6.836h0.37c0.552,0,1,0.448,1,1v10.631c0,0.552-0.448,1-1,1h-2.589v3.5
			c0,0.552-0.448,1-1,1h-10.26v21.277h17.536v2h-18.536c-0.552,0-1-0.448-1-1v-23.277c0-0.552,0.448-1,1-1h10.26v-3.5
			c0-0.552,0.448-1,1-1h2.589v-8.631h-2.616c-0.439,0-0.827-0.286-0.956-0.706c-0.129-0.419,0.03-0.874,0.393-1.121l13.291-9.046
			c0.339-0.231,0.786-0.231,1.125,0l13.291,9.046c0.363,0.247,0.522,0.702,0.393,1.121c-0.129,0.419-0.517,0.706-0.956,0.706h-2.465
			v8.631h2.589c0.552,0,1,0.448,1,1v3.5h10.26c0.552,0,1,0.448,1,1v23.277C304.91,175.891,304.462,176.338,303.91,176.338z"/>
		<path class="st0" d="M279.311,147.627c-3.162,0-5.733-2.572-5.733-5.733c0-3.161,2.572-5.733,5.733-5.733s5.733,2.572,5.733,5.733
			C285.044,145.056,282.473,147.627,279.311,147.627z M279.311,137.961c-2.169,0-3.934,1.765-3.934,3.933
			c0,2.169,1.765,3.934,3.934,3.934s3.934-1.765,3.934-3.934C283.245,139.726,281.48,137.961,279.311,137.961z"/>
		<path class="st0" d="M286.374,176.338h-2v-15.277c0-1.103-0.897-2-2-2h-6.126c-1.103,0-2,0.897-2,2v15.277h-2v-15.277
			c0-2.206,1.794-4,4-4h6.126c2.206,0,4,1.794,4,4V176.338z"/>
		<rect x="278.311" y="115.755" class="st0" width="2" height="12.129"/>
		<path class="st0" d="M286.47,119.191v2.682h-6.158v-2.682H286.47 M288.47,117.191h-10.158v6.682h10.158V117.191L288.47,117.191z"
			/>
		<path class="st0" d="M262.081,162.473h-3.612c-0.442,0-0.8-0.358-0.8-0.8v-3.612c0-0.442,0.358-0.8,0.8-0.8h3.612
			c0.442,0,0.8,0.358,0.8,0.8v3.612C262.881,162.115,262.523,162.473,262.081,162.473z M259.269,160.873h2.012v-2.012h-2.012
			V160.873z"/>
		<path class="st0" d="M269.259,162.473h-3.612c-0.442,0-0.8-0.358-0.8-0.8v-3.612c0-0.442,0.358-0.8,0.8-0.8h3.612
			c0.442,0,0.8,0.358,0.8,0.8v3.612C270.059,162.115,269.701,162.473,269.259,162.473z M266.447,160.873h2.012v-2.012h-2.012
			V160.873z"/>
		<path class="st0" d="M262.081,170.139h-3.612c-0.442,0-0.8-0.358-0.8-0.8v-3.612c0-0.442,0.358-0.8,0.8-0.8h3.612
			c0.442,0,0.8,0.358,0.8,0.8v3.612C262.881,169.781,262.523,170.139,262.081,170.139z M259.269,168.54h2.012v-2.012h-2.012V168.54z
			"/>
		<path class="st0" d="M269.259,170.139h-3.612c-0.442,0-0.8-0.358-0.8-0.8v-3.612c0-0.442,0.358-0.8,0.8-0.8h3.612
			c0.442,0,0.8,0.358,0.8,0.8v3.612C270.059,169.781,269.701,170.139,269.259,170.139z M266.447,168.54h2.012v-2.012h-2.012V168.54z
			"/>
		<path class="st0" d="M292.764,162.473h-3.612c-0.442,0-0.8-0.358-0.8-0.8v-3.612c0-0.442,0.358-0.8,0.8-0.8h3.612
			c0.442,0,0.8,0.358,0.8,0.8v3.612C293.563,162.115,293.206,162.473,292.764,162.473z M289.952,160.873h2.012v-2.012h-2.012
			V160.873z"/>
		<path class="st0" d="M299.942,162.473h-3.612c-0.442,0-0.8-0.358-0.8-0.8v-3.612c0-0.442,0.358-0.8,0.8-0.8h3.612
			c0.442,0,0.8,0.358,0.8,0.8v3.612C300.742,162.115,300.384,162.473,299.942,162.473z M297.13,160.873h2.012v-2.012h-2.012V160.873
			z"/>
		<path class="st0" d="M292.764,170.139h-3.612c-0.442,0-0.8-0.358-0.8-0.8v-3.612c0-0.442,0.358-0.8,0.8-0.8h3.612
			c0.442,0,0.8,0.358,0.8,0.8v3.612C293.563,169.781,293.206,170.139,292.764,170.139z M289.952,168.54h2.012v-2.012h-2.012V168.54z
			"/>
		<path class="st0" d="M299.942,170.139h-3.612c-0.442,0-0.8-0.358-0.8-0.8v-3.612c0-0.442,0.358-0.8,0.8-0.8h3.612
			c0.442,0,0.8,0.358,0.8,0.8v3.612C300.742,169.781,300.384,170.139,299.942,170.139z M297.13,168.54h2.012v-2.012h-2.012V168.54z"
			/>
	</g>
	<g>
		<path class="st0" d="M169.404,351.979c11.478,0,20.815,9.338,20.815,20.815c0,2.705-0.51,5.335-1.517,7.817
			c-0.647,1.595-1.521,3.137-2.599,4.586c-0.033,0.044-0.063,0.088-0.091,0.134l-16.609,20.682
			c-5.622-6.992-16.181-20.13-16.712-20.812c-0.001-0.001-0.002-0.003-0.003-0.004c-2.682-3.608-4.1-7.897-4.1-12.404
			C148.588,361.317,157.926,351.979,169.404,351.979 M169.404,383.89c6.874,0,12.465-5.592,12.465-12.465
			c0-6.873-5.592-12.465-12.465-12.465s-12.465,5.592-12.465,12.465C156.938,378.298,162.53,383.89,169.404,383.89 M169.404,349.979
			c-12.601,0-22.815,10.215-22.815,22.815c0,5.095,1.672,9.8,4.494,13.597h-0.001l0.006,0.007
			c0.309,0.416,18.316,22.808,18.316,22.808l18.322-22.815h-0.018c1.147-1.541,2.115-3.222,2.847-5.028
			c1.073-2.646,1.664-5.538,1.664-8.569C192.219,360.194,182.004,349.979,169.404,349.979L169.404,349.979z M169.404,381.89
			c-5.78,0-10.465-4.686-10.465-10.465s4.686-10.465,10.465-10.465s10.465,4.686,10.465,10.465S175.184,381.89,169.404,381.89
			L169.404,381.89z"/>
	</g>
</g>
</svg>
