<?xml version="1.0" encoding="utf-8"?>
<!-- Generator: Adobe Illustrator 25.2.1, SVG Export Plug-In . SVG Version: 6.00 Build 0)  -->
<svg version="1.1" id="Calque_1" xmlns="http://www.w3.org/2000/svg" xmlns:xlink="http://www.w3.org/1999/xlink" x="0px" y="0px"
	 viewBox="0 0 500 500" style="enable-background:new 0 0 500 500;" xml:space="preserve">
<style type="text/css">
	.st0{fill:url(#Tracé_98_1_);}
	.st1{fill:url(#Tracé_99_1_);}
	.st2{fill:url(#Tracé_100_1_);}
</style>
<g id="Groupe_55" transform="translate(-672.745 -374.944)">
	
		<linearGradient id="Tracé_98_1_" gradientUnits="userSpaceOnUse" x1="674.3749" y1="864.9133" x2="684.5003" y2="864.9133" gradientTransform="matrix(49.381 0 0 -41.971 -32595.5938 36926.2539)">
		<stop  offset="7.000001e-03" style="stop-color:#0086C6"/>
		<stop  offset="1" style="stop-color:#00AE59"/>
	</linearGradient>
	<path id="Tracé_98" class="st0" d="M1166.8,539.4L1166.8,539.4l-0.2-0.2l0,0l0,0l-68.9-43.5V425c0-6.9-5.6-12.5-12.5-12.5h-325
		c-6.9,0-12.5,5.6-12.5,12.5v70.8l-68.9,43.5l0,0l0,0l-0.2,0.1v0.1c-3.6,2.3-5.8,6.3-5.8,10.5v275c0,6.9,5.6,12.5,12.5,12.5h475
		c6.9,0,12.5-5.6,12.5-12.5v-275c0-4.3-2.2-8.2-5.8-10.5H1166.8z M1135.2,548.9l-37.5,19.8v-43.5L1135.2,548.9z M1072.6,437.4v144.4
		l-150,79l-150-79V437.4L1072.6,437.4z M747.6,568.7l-37.5-19.8l37.5-23.7V568.7z M1147.6,812.4H697.6V570.6L916.8,686
		c3.6,1.9,8,1.9,11.6,0l219.2-115.4L1147.6,812.4z"/>
	
		<linearGradient id="Tracé_99_1_" gradientUnits="userSpaceOnUse" x1="682.6624" y1="758.0643" x2="692.7878" y2="758.0643" gradientTransform="matrix(19.7438 0 0 -2.469 -12642.4619 2371.5825)">
		<stop  offset="7.000001e-03" style="stop-color:#0086C6"/>
		<stop  offset="1" style="stop-color:#00AE59"/>
	</linearGradient>
	<path id="Tracé_99" class="st1" d="M835.1,512.4h175c6.9,0,12.5-5.6,12.5-12.6c0-6.7-5.3-12.2-12-12.4H835.1
		c-6.9,0-12.5,5.6-12.5,12.6c0,6.7,5.3,12.2,12,12.4H835.1z"/>
	
		<linearGradient id="Tracé_100_1_" gradientUnits="userSpaceOnUse" x1="682.6624" y1="739.8099" x2="692.7878" y2="739.8099" gradientTransform="matrix(19.7438 0 0 -2.469 -12642.4619 2376.5215)">
		<stop  offset="7.000001e-03" style="stop-color:#0086C6"/>
		<stop  offset="1" style="stop-color:#00AE59"/>
	</linearGradient>
	<path id="Tracé_100" class="st2" d="M835.1,562.4h175c6.9,0,12.5-5.6,12.5-12.6c0-6.7-5.3-12.2-12-12.4H835.1
		c-6.9,0-12.5,5.6-12.5,12.6c0,6.7,5.3,12.2,12,12.4H835.1z"/>
</g>
</svg>
